# xmcd
#
# Track frame offsets: 
#        150
#        11428
#        26468
#        39467
#        54846
#        67223
#        80366
#        92381
#        104208
#        117820
#        130930
#        142677
#        155212
#        167465
#        180094
#        190158
#        200760
#        213064
#
# Disc length: 2952 seconds
#
# Revision: 1
# Processed by: cddbd v1.5.2PL0 Copyright (c) Steve Scherf et al.
# Submitted via: ExactAudioCopy v0.99pb4
#
DISCID=e50b8612
DTITLE=¤­Ä_ - ¤­Ä_jazz
DYEAR=1900
DGENRE=Jazz
TTITLE0=smoke in your eyes
TTITLE1=the great pretender
TTITLE2=crying in the chapel
TTITLE3=my prayer
TTITLE4=twilight time
TTITLE5=i'm sorry
TTITLE6=the magic touch
TTITLE7=heaven on earth
TTITLE8=harbor lights
TTITLE9=i'll be home
TTITLE10=with this ring
TTITLE11=pledging my love
TTITLE12=i love you a 1000 times
TTITLE13=if i had you
TTITLE14=one in a million
TTITLE15=red sails in the sunset
TTITLE16=washed ashore
TTITLE17=sweeet sweet lovin'
EXTD=
EXTT0=
EXTT1=
EXTT2=
EXTT3=
EXTT4=
EXTT5=
EXTT6=
EXTT7=
EXTT8=
EXTT9=
EXTT10=
EXTT11=
EXTT12=
EXTT13=
EXTT14=
EXTT15=
EXTT16=
EXTT17=
PLAYORDER=
